<svg width="40" height="40" viewBox="0 0 40 40" fill="none" xmlns="http://www.w3.org/2000/svg">
<g id="database_FILL0_wght400_GRAD0_opsz24 1" opacity="0.4">
<path id="Vector" d="M20 35C15.8056 35 12.2569 34.3542 9.35417 33.0625C6.45139 31.7708 5 30.1944 5 28.3333V11.6667C5 9.83333 6.46528 8.26389 9.39583 6.95833C12.3264 5.65278 15.8611 5 20 5C24.1389 5 27.6736 5.65278 30.6042 6.95833C33.5347 8.26389 35 9.83333 35 11.6667V28.3333C35 30.1944 33.5486 31.7708 30.6458 33.0625C27.7431 34.3542 24.1944 35 20 35ZM20 15.0417C22.4722 15.0417 24.9583 14.6875 27.4583 13.9792C29.9583 13.2708 31.3611 12.5139 31.6667 11.7083C31.3611 10.9028 29.9653 10.1389 27.4792 9.41667C24.9931 8.69444 22.5 8.33333 20 8.33333C17.4722 8.33333 14.9931 8.6875 12.5625 9.39583C10.1319 10.1042 8.72222 10.875 8.33333 11.7083C8.72222 12.5417 10.1319 13.3056 12.5625 14C14.9931 14.6944 17.4722 15.0417 20 15.0417ZM20 23.3333C21.1667 23.3333 22.2917 23.2778 23.375 23.1667C24.4583 23.0556 25.4931 22.8958 26.4792 22.6875C27.4653 22.4792 28.3958 22.2222 29.2708 21.9167C30.1458 21.6111 30.9444 21.2639 31.6667 20.875V15.875C30.9444 16.2639 30.1458 16.6111 29.2708 16.9167C28.3958 17.2222 27.4653 17.4792 26.4792 17.6875C25.4931 17.8958 24.4583 18.0556 23.375 18.1667C22.2917 18.2778 21.1667 18.3333 20 18.3333C18.8333 18.3333 17.6944 18.2778 16.5833 18.1667C15.4722 18.0556 14.4236 17.8958 13.4375 17.6875C12.4514 17.4792 11.5278 17.2222 10.6667 16.9167C9.80556 16.6111 9.02778 16.2639 8.33333 15.875V20.875C9.02778 21.2639 9.80556 21.6111 10.6667 21.9167C11.5278 22.2222 12.4514 22.4792 13.4375 22.6875C14.4236 22.8958 15.4722 23.0556 16.5833 23.1667C17.6944 23.2778 18.8333 23.3333 20 23.3333ZM20 31.6667C21.2778 31.6667 22.5764 31.5694 23.8958 31.375C25.2153 31.1806 26.4306 30.9236 27.5417 30.6042C28.6528 30.2847 29.5833 29.9236 30.3333 29.5208C31.0833 29.1181 31.5278 28.7083 31.6667 28.2917V24.2083C30.9444 24.5972 30.1458 24.9444 29.2708 25.25C28.3958 25.5556 27.4653 25.8125 26.4792 26.0208C25.4931 26.2292 24.4583 26.3889 23.375 26.5C22.2917 26.6111 21.1667 26.6667 20 26.6667C18.8333 26.6667 17.6944 26.6111 16.5833 26.5C15.4722 26.3889 14.4236 26.2292 13.4375 26.0208C12.4514 25.8125 11.5278 25.5556 10.6667 25.25C9.80556 24.9444 9.02778 24.5972 8.33333 24.2083V28.3333C8.47222 28.75 8.90972 29.1528 9.64583 29.5417C10.3819 29.9306 11.3056 30.2847 12.4167 30.6042C13.5278 30.9236 14.75 31.1806 16.0833 31.375C17.4167 31.5694 18.7222 31.6667 20 31.6667Z" fill="black"/>
</g>
</svg>
